<svg xmlns="http://www.w3.org/2000/svg" xmlns:svg="http://www.w3.org/2000/svg">
 <!-- Created with SVG-edit - http://svg-edit.googlecode.com/ -->
  <g id="electrical_equipments">
      <svg xmlns="http://www.w3.org/2000/svg"  viewBox="0 0 32 32"> <!-- View box define icon viewport -->
	  <path transform="rotate(8.905340194702148 16.384569168090824,15.933474540710444) " fill="#bfbf00" stroke="#000000" id="svg_1" d="m23.985682,9.103919c-0.173096,-0.173218 -0.369871,-0.259857 -0.589292,-0.260282c-0.04675,0 -0.115478,0.011718 -0.208371,0.034729l-6.864224,1.698722l2.963884,-8.025747c0.057739,-0.115539 0.086882,-0.219421 0.086882,-0.31201c0,-0.19635 -0.075407,-0.366714 -0.225432,-0.511213c-0.150207,-0.144682 -0.335142,-0.21681 -0.554563,-0.21681l-5.685579,0c-0.184875,0 -0.346557,0.051911 -0.485349,0.155914c-0.138671,0.104125 -0.23126,0.237089 -0.277342,0.39871l-3.484144,14.300982c-0.057861,0.2771 0.017243,0.502531 0.22531,0.676052c0.150146,0.127439 0.329132,0.190582 0.537199,0.190582c0.092528,0 0.161864,-0.005404 0.208067,-0.017061l7.037624,-1.750876l-3.414808,14.006215c-0.046143,0.184875 -0.020218,0.358153 0.078139,0.519835c0.098296,0.162046 0.24571,0.271757 0.44206,0.329496c0.115539,0.022889 0.196653,0.034486 0.242796,0.034486c0.335142,0 0.577635,-0.144196 0.728024,-0.433256l9.360427,-20.055837c0.127196,-0.277282 0.087064,-0.531613 -0.121307,-0.762631z"/>
      </svg>
  </g>
  <g id="svg_eof"/>
</svg>