<svg xmlns="http://www.w3.org/2000/svg" xmlns:svg="http://www.w3.org/2000/svg">
    <!-- Created with SVG-edit - http://svg-edit.googlecode.com/ -->
    <g id="process_equipments">
        <svg xmlns="http://www.w3.org/2000/svg"  viewBox="0 0 32 32"> <!-- View box define icon viewport -->
            <path fill="#326b67" id="svg_1" d="m21.594226,11.106447l-1.047368,-1.10881l0.010801,-2.206294l3.841276,-4.066616c-1.830374,-0.696518 -3.956588,-0.269525 -5.42313,1.283048c-1.462325,1.548108 -1.867817,3.790666 -1.217815,5.724712l-12.398488,13.125707c-0.867664,0.918563 -0.867664,2.407975 0,3.326538c0.867664,0.918563 2.274544,0.918563 3.142208,0l12.398385,-13.125707c1.826774,0.688133 3.94517,0.258853 5.407494,-1.289255c1.462325,-1.548108 1.867817,-3.790666 1.217815,-5.724712l-3.836339,4.061389l-2.09484,0z"/>
        </svg>
    </g>    
    <g id="remove_equipments">
        <svg xmlns="http://www.w3.org/2000/svg"  viewBox="0 0 32 32"> <!-- View box define icon viewport -->
            <path fill="#FF3636" id="svg_1" d="m21.785112,11.869946c-0.013833,-0.332649 -0.138658,-0.662558 -0.395772,-0.916414c-0.256092,-0.253871 -0.589023,-0.378444 -0.924649,-0.392247c-0.373541,-0.015581 -0.751704,0.109051 -1.036485,0.392247l-3.178946,3.151546l-3.178961,-3.151546c-0.285684,-0.283196 -0.662943,-0.40691 -1.036514,-0.392247c-0.335641,0.013744 -0.668512,0.137473 -0.924649,0.392247c-0.256107,0.253856 -0.38185,0.583765 -0.395787,0.916414c-0.015699,0.370253 0.110044,0.744091 0.395787,1.027287l3.178946,3.151546l-3.178946,3.150628c-0.285743,0.283137 -0.410568,0.657093 -0.395787,1.027243c0.013878,0.332649 0.138717,0.662603 0.395787,0.916414c0.256137,0.253871 0.589008,0.378488 0.924649,0.392247c0.373571,0.015566 0.75083,-0.109007 1.036514,-0.392247l3.178961,-3.150583l3.179864,3.151546c0.285743,0.283137 0.663002,0.406866 1.036529,0.392247c0.335626,-0.013759 0.668512,-0.137473 0.924649,-0.392247c0.256152,-0.253871 0.38185,-0.58378 0.395772,-0.916414c0.015714,-0.370253 -0.110029,-0.744106 -0.395772,-1.027287l-3.179879,-3.151546l3.178916,-3.150628c0.285773,-0.283152 0.411487,-0.657048 0.395772,-1.028205zm-5.535852,-10.483747c-8.170177,0 -14.79438,6.565197 -14.79438,14.66258s6.624203,14.66258 14.79438,14.66258s14.79438,-6.565197 14.79438,-14.66258s-6.624218,-14.66258 -14.79438,-14.66258zm0,26.575917c-6.627876,0 -12.020434,-5.344497 -12.020434,-11.913338s5.392558,-11.913338 12.020434,-11.913338s12.020434,5.344497 12.020434,11.913338s-5.392558,11.913338 -12.020434,11.913338z"/>
        </svg>
    </g>
    <g id="electrical_equipments">
        <svg xmlns="http://www.w3.org/2000/svg"  viewBox="0 0 32 32"> <!-- View box define icon viewport -->
            <path transform="rotate(8.905340194702148 16.384569168090824,15.933474540710444) " fill="#bfbf00" stroke="#000000" id="svg_1" d="m23.985682,9.103919c-0.173096,-0.173218 -0.369871,-0.259857 -0.589292,-0.260282c-0.04675,0 -0.115478,0.011718 -0.208371,0.034729l-6.864224,1.698722l2.963884,-8.025747c0.057739,-0.115539 0.086882,-0.219421 0.086882,-0.31201c0,-0.19635 -0.075407,-0.366714 -0.225432,-0.511213c-0.150207,-0.144682 -0.335142,-0.21681 -0.554563,-0.21681l-5.685579,0c-0.184875,0 -0.346557,0.051911 -0.485349,0.155914c-0.138671,0.104125 -0.23126,0.237089 -0.277342,0.39871l-3.484144,14.300982c-0.057861,0.2771 0.017243,0.502531 0.22531,0.676052c0.150146,0.127439 0.329132,0.190582 0.537199,0.190582c0.092528,0 0.161864,-0.005404 0.208067,-0.017061l7.037624,-1.750876l-3.414808,14.006215c-0.046143,0.184875 -0.020218,0.358153 0.078139,0.519835c0.098296,0.162046 0.24571,0.271757 0.44206,0.329496c0.115539,0.022889 0.196653,0.034486 0.242796,0.034486c0.335142,0 0.577635,-0.144196 0.728024,-0.433256l9.360427,-20.055837c0.127196,-0.277282 0.087064,-0.531613 -0.121307,-0.762631z"/>
        </svg>
    </g>
    <g id="safety_equipments">
      <svg xmlns="http://www.w3.org/2000/svg"  viewBox="0 0 32 32"> <!-- View box define icon viewport -->
        <path stroke="#000000" id="svg_2" fill="#FF0000" d="m16,2c-7.72725,0 -14,6.26717 -14,14c0,7.72963 6.26949,14 14,14c7.72643,0 14,-6.26649 14,-14c0,-7.72678 -6.26691,-14 -14,-14zm5.09389,19.09389c-2.81271,2.81277 -7.37053,2.81754 -10.18778,0c-2.81326,-2.81326 -2.81639,-7.37141 0,-10.18779c2.81467,-2.81468 7.37242,-2.81549 10.18778,0c2.81298,2.81277 2.81678,7.37134 0,10.18779zm0.36053,-16.12569l-1.68619,2.96019c-2.37293,-1.11063 -5.16118,-1.1115 -7.53655,0.00007l-1.68619,-2.96026c3.35925,-1.66463 7.43632,-1.72091 10.90893,0zm-16.49438,5.59409l2.96053,1.68639c-1.10689,2.37817 -1.11844,5.21942 0.07326,7.65562l-2.95787,1.68482c-1.73097,-3.38664 -1.80872,-7.51657 -0.07591,-11.02683l-0.00001,0zm5.67238,16.51191l1.68734,-2.96223c2.32393,1.05659 5.0334,1.05788 7.36053,-0.00007l1.68734,2.9623c-3.3269,1.61584 -7.32383,1.65689 -10.73521,0zm13.3738,-7.16983c1.18952,-2.43206 1.18211,-5.27304 0.0732,-7.65562l2.96053,-1.68639c1.67612,3.39541 1.71303,7.5267 -0.07592,11.0269l-2.9578,-1.68489l-0.00001,0z"/>
      </svg>
    </g>
    <g id="structure_equipments">
      <svg xmlns="http://www.w3.org/2000/svg"  viewBox="0 0 32 32"> <!-- View box define icon viewport -->
	  <path fill="#000000" stroke="#000000" id="svg_1" d="m26.889192,14.655248l-2.1486,-1.999338l0,-4.899688c0,-0.758893 -0.666807,-1.379805 -1.481793,-1.379805l-1.481793,0c-0.814986,0 -1.481793,0.620912 -1.481793,1.379805l0,0.763032l-2.963587,-2.756851c-0.40453,-0.35599 -0.774978,-0.765792 -1.481793,-0.765792s-1.077264,0.409802 -1.481793,0.765792l-9.557568,8.892844c-0.46232,0.448437 -0.814986,0.77545 -0.814986,1.379805c0,0.77683 0.640135,1.379805 1.481793,1.379805l1.481793,0l0,8.278831c0,0.758893 0.666807,1.379805 1.481793,1.379805l4.44538,0l0,-6.899026c0,-0.758893 0.666807,-1.379805 1.481793,-1.379805l2.963587,0c0.814986,0 1.481793,0.620912 1.481793,1.379805l0,6.899026l4.44538,0c0.814986,0 1.481793,-0.620912 1.481793,-1.379805l0,-8.278831l1.481793,0c0.841659,0 1.481793,-0.602975 1.481793,-1.379805c0,-0.604355 -0.352667,-0.931368 -0.814986,-1.379805z"/>
      </svg>
    </g>
    <g id="svg_eof"/>
</svg>