<svg xmlns="http://www.w3.org/2000/svg" xmlns:xlink="http://www.w3.org/1999/xlink" xmlns:svg="http://www.w3.org/2000/svg">
    <g id="tool_preview">
        <svg xmlns="http://www.w3.org/2000/svg" viewBox="-12 0 100 62">
            <text style="cursor: move;" xml:space="preserve" text-anchor="middle" font-family="serif" font-size="24" id="svg_1" y="21" x="40" stroke-width="0" stroke="#000000" fill="#000000">Preview</text>
        </svg>
    </g>
    <g id="tool_fid_save" stroke="none" stroke-width="1" fill="none">
        <svg xmlns="http://www.w3.org/2000/svg" viewBox="0 0 208 208" viewPort="">
            <path d="M214.389788,60.4936194 C212.511255,55.9858311 210.253901,52.4155798 207.622917,49.7845951 L168.163336,10.3250147 C165.534081,7.69575983 161.9621,5.44013591 157.452582,3.55987272 C152.944794,1.6813393 148.810637,0.742072593 145.05357,0.742072593 L14.2706268,0.742072593 C10.51356,0.742072593 7.31866933,2.05670003 4.68768468,4.68768468 C2.05670003,7.31693955 0.742072593,10.5118302 0.742072593,14.2706268 L0.742072593,203.680764 C0.742072593,207.439561 2.05670003,210.634451 4.68768468,213.263706 C7.31866933,215.892961 10.51356,217.209318 14.2706268,217.209318 L203.680764,217.209318 C207.439561,217.209318 210.634451,215.892961 213.263706,213.263706 C215.892961,210.634451 217.207589,207.439561 217.207589,203.680764 L217.207589,72.8978212 C217.207589,69.1390246 216.268322,65.0048672 214.389788,60.4936194 L214.389788,60.4936194 Z M90.9376232,23.2896629 C90.9376232,22.0684432 91.3839046,21.0132817 92.2764675,20.1189891 C93.1690303,19.228156 94.2259216,18.7818746 95.4471413,18.7818746 L122.507709,18.7818746 C123.725469,18.7818746 124.782361,19.2264263 125.674923,20.1189891 C126.569216,21.0132817 127.015498,22.0684432 127.015498,23.2896629 L127.015498,68.3865733 C127.015498,69.6095228 126.567486,70.6664141 125.674923,71.5589769 C124.782361,72.44981 123.725469,72.8960914 122.507709,72.8960914 L95.4471413,72.8960914 C94.2259216,72.8960914 93.1690303,72.4515398 92.2764675,71.5589769 C91.3839046,70.6646843 90.9376232,69.6095228 90.9376232,68.3865733 L90.9376232,23.2896629 L90.9376232,23.2896629 Z M163.093372,199.171246 L54.8580192,199.171246 L54.8580192,145.05357 L163.093372,145.05357 L163.093372,199.171246 L163.093372,199.171246 Z M199.174706,199.171246 L181.131444,199.171246 L181.129714,199.171246 L181.129714,140.542322 C181.129714,136.783525 179.815087,133.590364 177.184102,130.95938 C174.554847,128.328395 171.359957,127.013768 167.60289,127.013768 L50.3485011,127.013768 C46.5897045,127.013768 43.3948139,128.328395 40.7638292,130.95938 C38.1345743,133.588635 36.8182171,136.783525 36.8182171,140.542322 L36.8182171,199.171246 L18.7801449,199.171246 L18.7801449,18.7801449 L36.8182171,18.7801449 L36.8182171,77.4073393 C36.8182171,81.1661359 38.1328446,84.3592967 40.7638292,86.9902814 C43.3948139,89.6195362 46.5897045,90.9358934 50.3485011,90.9358934 L131.525016,90.9358934 C135.282082,90.9358934 138.480433,89.6195362 141.107958,86.9902814 C143.735483,84.3610265 145.05357,81.1661359 145.05357,77.4073393 L145.05357,18.7801449 C146.461605,18.7801449 148.293435,19.2489133 150.549058,20.18818 C152.806412,21.1274467 154.402993,22.0667134 155.342259,23.0059802 L194.945411,62.6091317 C195.886407,63.5483984 196.825674,65.1709254 197.764941,67.4715235 C198.705937,69.7738512 199.174706,71.5831937 199.174706,72.8978212 L199.174706,199.171246 L199.174706,199.171246 Z" id="Shape"></path>
        </svg>
    </g>
    <g id="tool_fid_background">
        <svg xmlns="http://www.w3.org/2000/svg" viewBox="0 0 50 50" viewPort="">
            <path d="M48.48,0.997 C48.106,0.842 47.675,0.929 47.389,1.218 L0.617,48.349 C0.333,48.635 0.249,49.065 0.404,49.438 C0.559,49.81 0.924,50.053 1.327,50.053 L48.099,50.053 C48.651,50.053 49.099,49.606 49.099,49.053 L49.099,1.921 C49.099,1.516 48.854,1.151 48.48,0.997 L48.48,0.997 Z M47.099,48.053 L3.728,48.053 L13.081,38.628 L16.72,42.268 C16.915,42.463 17.171,42.561 17.427,42.561 C17.683,42.561 17.939,42.463 18.134,42.268 C18.525,41.877 18.525,41.245 18.134,40.854 L14.49,37.209 L16.928,34.752 L19.511,37.336 C19.706,37.531 19.962,37.629 20.218,37.629 C20.474,37.629 20.73,37.531 20.925,37.336 C21.316,36.945 21.316,36.313 20.925,35.922 L18.336,33.333 L20.773,30.877 L24.443,34.545 C24.638,34.74 24.894,34.838 25.15,34.838 C25.406,34.838 25.662,34.74 25.857,34.545 C26.248,34.154 26.248,33.522 25.857,33.131 L22.182,29.457 L24.62,27 L27.233,29.613 C27.428,29.808 27.684,29.906 27.94,29.906 C28.196,29.906 28.452,29.808 28.647,29.613 C29.038,29.222 29.038,28.59 28.647,28.199 L26.029,25.581 L28.467,23.124 L32.166,26.823 C32.361,27.018 32.617,27.116 32.873,27.116 C33.129,27.116 33.385,27.018 33.58,26.823 C33.971,26.432 33.971,25.8 33.58,25.409 L29.876,21.705 L32.313,19.249 L34.956,21.893 C35.151,22.088 35.407,22.186 35.663,22.186 C35.919,22.186 36.175,22.088 36.37,21.893 C36.761,21.502 36.761,20.87 36.37,20.479 L33.722,17.83 L36.16,15.374 L39.888,19.103 C40.083,19.298 40.339,19.396 40.595,19.396 C40.851,19.396 41.107,19.298 41.302,19.103 C41.693,18.712 41.693,18.08 41.302,17.689 L37.568,13.955 L47.1,4.35 L47.1,48.053 L47.099,48.053 Z" id="Shape"></path>
            <path d="M41.022,24.587 C40.649,24.434 40.217,24.52 39.932,24.808 L23.967,40.891 C23.682,41.177 23.598,41.607 23.753,41.98 C23.908,42.352 24.273,42.595 24.676,42.595 L40.641,42.595 C41.193,42.595 41.641,42.148 41.641,41.595 L41.641,25.512 C41.641,25.107 41.397,24.742 41.022,24.587 L41.022,24.587 Z M39.641,40.595 L27.078,40.595 L39.641,27.939 L39.641,40.595 L39.641,40.595 Z" id="Shape"></path>
        </svg>
    </g>
    <g id="svg_eof"/>
</svg>
