<svg xmlns="http://www.w3.org/2000/svg" xmlns:svg="http://www.w3.org/2000/svg">
 <!-- Created with SVG-edit - http://svg-edit.googlecode.com/ -->
  <g id="instrument_equipments">
      <svg xmlns="http://www.w3.org/2000/svg"  viewBox="0 0 96 96"> <!-- View box define icon viewport -->
	   <path d="M49.468,1.626c-24.504,0-44.371,19.864-44.371,44.371c0,24.505,19.866,44.375,44.371,44.375
		c24.507,0,44.146-19.869,44.146-44.375C93.613,21.49,73.975,1.626,49.468,1.626z M76.999,67.031
		c-0.282,0.373-5.034-3.148-5.034-3.148l-1.949,2.771c0,0,4.483,3.307,3.931,3.854c-5.915,5.895-13.984,9.64-22.959,10.024
		c-0.24,0.013-0.06-6.71-0.06-6.71l-3.077-0.019c0,0-0.163,4.282-0.137,6.715c-7.368-0.371-14.134-3.015-19.584-7.247
		c-1.127-0.87-2.195-1.817-3.204-2.819c-0.377-0.377,3.639-3.945,3.639-3.945l-2.461-2.66c0,0-2.791,2.035-4.309,3.024
		c-4.097-5.398-6.631-12.049-6.929-19.312c-0.007-0.182,6.567,0.078,6.567,0.078l0.061-3.267c0,0-3.777,0.04-6.619,0.115
		c0.32-6.976,3.22-14.425,7.074-19.713c0.198-0.277,3.859,3.575,3.859,3.575l2.583-3.49c0,0-3.044-2.434-3.557-3.053
		c6.283-6.337,15.008-10.253,24.655-10.253c9.515,0,18.311,3.913,24.549,10.096c-1.108,0.733-4.193,3.579-4.193,3.579l2.353,2.856
		c0,0,4.365-3.49,4.614-3.167c4.188,5.398,6.802,12.079,7.177,19.369c-1.402,0.092-6.917,0.086-6.917,0.086l0.122,3.311
		c0,0,6.823-0.331,6.811-0.025C83.688,54.953,81.128,61.628,76.999,67.031z"/>
	<path d="M49.256,14.681l-7.554,28.116c0,0-3.543,11.614,7.358,11.614c0,0,10.94-0.165,7.479-11.502L49.256,14.681z"/>
      </svg>
  </g>
  <g id="svg_eof"/>
</svg>
