<svg xmlns="http://www.w3.org/2000/svg" xmlns:svg="http://www.w3.org/2000/svg">
 <!-- Created with SVG-edit - http://svg-edit.googlecode.com/ -->
  <g id="safety_equipments">
      <svg xmlns="http://www.w3.org/2000/svg"  viewBox="0 0 32 32"> <!-- View box define icon viewport -->
	  <path stroke="#000000" d="m16,2c-7.72725,0 -14,6.26717 -14,14c0,7.72963 6.26949,14 14,14c7.72643,0 14,-6.26649 14,-14c0,-7.72678 -6.26691,-14 -14,-14zm5.09389,19.09389c-2.81271,2.81277 -7.37053,2.81754 -10.18778,0c-2.81326,-2.81326 -2.81639,-7.37141 0,-10.18779c2.81467,-2.81468 7.37242,-2.81549 10.18778,0c2.81298,2.81277 2.81678,7.37134 0,10.18779zm0.36053,-16.12569l-1.68619,2.96019c-2.37293,-1.11063 -5.16118,-1.1115 -7.53655,0.00007l-1.68619,-2.96026c3.35925,-1.66463 7.43632,-1.72091 10.90893,0zm-16.49438,5.59409l2.96053,1.68639c-1.10689,2.37817 -1.11844,5.21942 0.07326,7.65562l-2.95787,1.68482c-1.73097,-3.38664 -1.80872,-7.51657 -0.07591,-11.02683zm5.67238,16.51191l1.68734,-2.96223c2.32393,1.05659 5.0334,1.05788 7.36053,-0.00007l1.68734,2.9623c-3.3269,1.61584 -7.32383,1.65689 -10.73521,0zm13.3738,-7.16983c1.18952,-2.43206 1.18211,-5.27304 0.0732,-7.65562l2.96053,-1.68639c1.67612,3.39541 1.71303,7.5267 -0.07592,11.0269l-2.9578,-1.68489z" fill="#FF0000" id="svg_1"/>
      </svg>
  </g>
  <g id="svg_eof"/>
</svg>