<svg xmlns="http://www.w3.org/2000/svg" xmlns:svg="http://www.w3.org/2000/svg">
 <!-- Created with SVG-edit - http://svg-edit.googlecode.com/ -->
  <g id="structure_equipments">
      <svg xmlns="http://www.w3.org/2000/svg"  viewBox="0 0 32 32"> <!-- View box define icon viewport -->
	  <path fill="#000000" stroke="#000000" id="svg_1" d="m26.889192,14.655248l-2.1486,-1.999338l0,-4.899688c0,-0.758893 -0.666807,-1.379805 -1.481793,-1.379805l-1.481793,0c-0.814986,0 -1.481793,0.620912 -1.481793,1.379805l0,0.763032l-2.963587,-2.756851c-0.40453,-0.35599 -0.774978,-0.765792 -1.481793,-0.765792s-1.077264,0.409802 -1.481793,0.765792l-9.557568,8.892844c-0.46232,0.448437 -0.814986,0.77545 -0.814986,1.379805c0,0.77683 0.640135,1.379805 1.481793,1.379805l1.481793,0l0,8.278831c0,0.758893 0.666807,1.379805 1.481793,1.379805l4.44538,0l0,-6.899026c0,-0.758893 0.666807,-1.379805 1.481793,-1.379805l2.963587,0c0.814986,0 1.481793,0.620912 1.481793,1.379805l0,6.899026l4.44538,0c0.814986,0 1.481793,-0.620912 1.481793,-1.379805l0,-8.278831l1.481793,0c0.841659,0 1.481793,-0.602975 1.481793,-1.379805c0,-0.604355 -0.352667,-0.931368 -0.814986,-1.379805z"/>
      </svg>
  </g>
  <g id="svg_eof"/>
</svg>